# xmcd
#
# Track frame offsets:
# 150
# 14722
# 27572
# 51007
# 61729
# 77339
# 91286
# 102707
# 117069
# 128775
# 143974
#
# Disc length: 2055 seconds
#
#
# Revision: 0
# Processed by: cddbd v1.5.1PL0 Copyright (c) Steve Scherf et al.
# Submitted via: FreeRIP 2.91 
#
DISCID=9008050b
DTITLE=Lewis Family - Angels Gathering Flowers
DYEAR=2004
DGENRE=Bluegrass
TTITLE0=When We Get To The Other Side
TTITLE1=Mama Prayed, Daddy Sang
TTITLE2=Crown That Lasts Forever
TTITLE3=Traveling Shoes
TTITLE4=Angels Gathering Flowers
TTITLE5=Purple Robe
TTITLE6=I Will Go Where He Leads Me
TTITLE7=Mama's Flower Bed
TTITLE8=I'm Bound for the Land of Canaan
TTITLE9=How God Has Taken Care of Me
TTITLE10=Light of Love
EXTD=
EXTT0=
EXTT1=
EXTT2=
EXTT3=
EXTT4=
EXTT5=
EXTT6=
EXTT7=
EXTT8=
EXTT9=
EXTT10=
PLAYORDER=
